<mxfile host="Electron" agent="Mozilla/5.0 (Windows NT 10.0; Win64; x64) AppleWebKit/537.36 (KHTML, like Gecko) draw.io/24.7.17 Chrome/128.0.6613.36 Electron/32.0.1 Safari/537.36" version="24.7.17">
  <diagram id="C5RBs43oDa-KdzZeNtuy" name="Page-1">
    <mxGraphModel dx="1863" dy="606" grid="1" gridSize="10" guides="1" tooltips="1" connect="1" arrows="1" fold="1" page="1" pageScale="1" pageWidth="827" pageHeight="1169" math="0" shadow="0">
      <root>
        <mxCell id="WIyWlLk6GJQsqaUBKTNV-0" />
        <mxCell id="WIyWlLk6GJQsqaUBKTNV-1" parent="WIyWlLk6GJQsqaUBKTNV-0" />
        <mxCell id="zkfFHV4jXpPFQw0GAbJ--0" value="Pokemon" style="swimlane;fontStyle=2;align=center;verticalAlign=top;childLayout=stackLayout;horizontal=1;startSize=30;horizontalStack=0;resizeParent=1;resizeLast=0;collapsible=1;marginBottom=0;rounded=0;shadow=0;strokeWidth=1;" parent="WIyWlLk6GJQsqaUBKTNV-1" vertex="1">
          <mxGeometry x="300" y="240" width="380" height="160" as="geometry">
            <mxRectangle x="230" y="140" width="160" height="26" as="alternateBounds" />
          </mxGeometry>
        </mxCell>
        <mxCell id="zkfFHV4jXpPFQw0GAbJ--1" value="- Almacenar y gentionar                    - Ataque&#xa;informacion del pokemon                  " style="text;align=left;verticalAlign=top;spacingLeft=4;spacingRight=4;overflow=hidden;rotatable=0;points=[[0,0.5],[1,0.5]];portConstraint=eastwest;" parent="zkfFHV4jXpPFQw0GAbJ--0" vertex="1">
          <mxGeometry y="30" width="380" height="40" as="geometry" />
        </mxCell>
        <mxCell id="6fUTlpf4RYFusp5NiyDY-0" value="" style="endArrow=none;html=1;rounded=0;entryX=0.5;entryY=1;entryDx=0;entryDy=0;" parent="zkfFHV4jXpPFQw0GAbJ--0" target="zkfFHV4jXpPFQw0GAbJ--0" edge="1">
          <mxGeometry width="50" height="50" relative="1" as="geometry">
            <mxPoint x="190" y="30" as="sourcePoint" />
            <mxPoint x="144.5" y="116" as="targetPoint" />
          </mxGeometry>
        </mxCell>
        <mxCell id="zkfFHV4jXpPFQw0GAbJ--2" value="- Ejecutar sus ataques                      - Tipo" style="text;align=left;verticalAlign=top;spacingLeft=4;spacingRight=4;overflow=hidden;rotatable=0;points=[[0,0.5],[1,0.5]];portConstraint=eastwest;rounded=0;shadow=0;html=0;" parent="zkfFHV4jXpPFQw0GAbJ--0" vertex="1">
          <mxGeometry y="70" width="380" height="26" as="geometry" />
        </mxCell>
        <mxCell id="zkfFHV4jXpPFQw0GAbJ--3" value="- Actualizar su vida al pelear             - Pokedex" style="text;align=left;verticalAlign=top;spacingLeft=4;spacingRight=4;overflow=hidden;rotatable=0;points=[[0,0.5],[1,0.5]];portConstraint=eastwest;rounded=0;shadow=0;html=0;" parent="zkfFHV4jXpPFQw0GAbJ--0" vertex="1">
          <mxGeometry y="96" width="380" height="26" as="geometry" />
        </mxCell>
        <mxCell id="zkfFHV4jXpPFQw0GAbJ--5" value="- Verificar si el pokemon fue             - Entrenador&#xa;derrotado" style="text;align=left;verticalAlign=top;spacingLeft=4;spacingRight=4;overflow=hidden;rotatable=0;points=[[0,0.5],[1,0.5]];portConstraint=eastwest;" parent="zkfFHV4jXpPFQw0GAbJ--0" vertex="1">
          <mxGeometry y="122" width="380" height="38" as="geometry" />
        </mxCell>
        <mxCell id="6fUTlpf4RYFusp5NiyDY-1" value="Tipo" style="swimlane;fontStyle=2;align=center;verticalAlign=top;childLayout=stackLayout;horizontal=1;startSize=26;horizontalStack=0;resizeParent=1;resizeLast=0;collapsible=1;marginBottom=0;rounded=0;shadow=0;strokeWidth=1;" parent="WIyWlLk6GJQsqaUBKTNV-1" vertex="1">
          <mxGeometry y="430" width="290" height="130" as="geometry">
            <mxRectangle x="230" y="140" width="160" height="26" as="alternateBounds" />
          </mxGeometry>
        </mxCell>
        <mxCell id="6fUTlpf4RYFusp5NiyDY-3" value="" style="endArrow=none;html=1;rounded=0;entryX=0.5;entryY=1;entryDx=0;entryDy=0;" parent="6fUTlpf4RYFusp5NiyDY-1" target="6fUTlpf4RYFusp5NiyDY-1" edge="1">
          <mxGeometry width="50" height="50" relative="1" as="geometry">
            <mxPoint x="144.5" y="26" as="sourcePoint" />
            <mxPoint x="144.5" y="116" as="targetPoint" />
          </mxGeometry>
        </mxCell>
        <mxCell id="6fUTlpf4RYFusp5NiyDY-2" value="- Almacenar fortalezas y     &#xa;debilidades del tipo de &#xa;pokemon                             " style="text;align=left;verticalAlign=top;spacingLeft=4;spacingRight=4;overflow=hidden;rotatable=0;points=[[0,0.5],[1,0.5]];portConstraint=eastwest;" parent="6fUTlpf4RYFusp5NiyDY-1" vertex="1">
          <mxGeometry y="26" width="290" height="54" as="geometry" />
        </mxCell>
        <mxCell id="6fUTlpf4RYFusp5NiyDY-4" value="- Calcular el multiplicador &#xa;de daño dependiendo de&#xa;los tipos de pokemon" style="text;align=left;verticalAlign=top;spacingLeft=4;spacingRight=4;overflow=hidden;rotatable=0;points=[[0,0.5],[1,0.5]];portConstraint=eastwest;rounded=0;shadow=0;html=0;" parent="6fUTlpf4RYFusp5NiyDY-1" vertex="1">
          <mxGeometry y="80" width="290" height="50" as="geometry" />
        </mxCell>
        <mxCell id="6fUTlpf4RYFusp5NiyDY-7" value="Ataque" style="swimlane;fontStyle=2;align=center;verticalAlign=top;childLayout=stackLayout;horizontal=1;startSize=26;horizontalStack=0;resizeParent=1;resizeLast=0;collapsible=1;marginBottom=0;rounded=0;shadow=0;strokeWidth=1;" parent="WIyWlLk6GJQsqaUBKTNV-1" vertex="1">
          <mxGeometry x="620" y="430" width="290" height="100" as="geometry">
            <mxRectangle x="230" y="140" width="160" height="26" as="alternateBounds" />
          </mxGeometry>
        </mxCell>
        <mxCell id="6fUTlpf4RYFusp5NiyDY-8" value="- Almacenar informacion     - Tipo &#xa;del ataque" style="text;align=left;verticalAlign=top;spacingLeft=4;spacingRight=4;overflow=hidden;rotatable=0;points=[[0,0.5],[1,0.5]];portConstraint=eastwest;" parent="6fUTlpf4RYFusp5NiyDY-7" vertex="1">
          <mxGeometry y="26" width="290" height="34" as="geometry" />
        </mxCell>
        <mxCell id="6fUTlpf4RYFusp5NiyDY-9" value="" style="endArrow=none;html=1;rounded=0;entryX=0.5;entryY=1;entryDx=0;entryDy=0;" parent="6fUTlpf4RYFusp5NiyDY-7" target="6fUTlpf4RYFusp5NiyDY-7" edge="1">
          <mxGeometry width="50" height="50" relative="1" as="geometry">
            <mxPoint x="144.5" y="26" as="sourcePoint" />
            <mxPoint x="144.5" y="116" as="targetPoint" />
          </mxGeometry>
        </mxCell>
        <mxCell id="6fUTlpf4RYFusp5NiyDY-10" value="- Determinar que tipo de      &#xa;ataque se uso" style="text;align=left;verticalAlign=top;spacingLeft=4;spacingRight=4;overflow=hidden;rotatable=0;points=[[0,0.5],[1,0.5]];portConstraint=eastwest;rounded=0;shadow=0;html=0;" parent="6fUTlpf4RYFusp5NiyDY-7" vertex="1">
          <mxGeometry y="60" width="290" height="40" as="geometry" />
        </mxCell>
        <mxCell id="6fUTlpf4RYFusp5NiyDY-19" value="Entrenador" style="swimlane;fontStyle=2;align=center;verticalAlign=top;childLayout=stackLayout;horizontal=1;startSize=26;horizontalStack=0;resizeParent=1;resizeLast=0;collapsible=1;marginBottom=0;rounded=0;shadow=0;strokeWidth=1;" parent="WIyWlLk6GJQsqaUBKTNV-1" vertex="1">
          <mxGeometry x="730" y="240" width="360" height="120" as="geometry">
            <mxRectangle x="230" y="140" width="160" height="26" as="alternateBounds" />
          </mxGeometry>
        </mxCell>
        <mxCell id="6fUTlpf4RYFusp5NiyDY-20" value="- Gestionar un equipo pokemon     - Pokemon" style="text;align=left;verticalAlign=top;spacingLeft=4;spacingRight=4;overflow=hidden;rotatable=0;points=[[0,0.5],[1,0.5]];portConstraint=eastwest;" parent="6fUTlpf4RYFusp5NiyDY-19" vertex="1">
          <mxGeometry y="26" width="360" height="26" as="geometry" />
        </mxCell>
        <mxCell id="6fUTlpf4RYFusp5NiyDY-21" value="" style="endArrow=none;html=1;rounded=0;entryX=0.5;entryY=1;entryDx=0;entryDy=0;" parent="6fUTlpf4RYFusp5NiyDY-19" target="6fUTlpf4RYFusp5NiyDY-19" edge="1">
          <mxGeometry width="50" height="50" relative="1" as="geometry">
            <mxPoint x="180" y="28" as="sourcePoint" />
            <mxPoint x="144.5" y="116" as="targetPoint" />
          </mxGeometry>
        </mxCell>
        <mxCell id="6fUTlpf4RYFusp5NiyDY-22" value="- Iniciar y terminar turnos                - Batalla" style="text;align=left;verticalAlign=top;spacingLeft=4;spacingRight=4;overflow=hidden;rotatable=0;points=[[0,0.5],[1,0.5]];portConstraint=eastwest;rounded=0;shadow=0;html=0;" parent="6fUTlpf4RYFusp5NiyDY-19" vertex="1">
          <mxGeometry y="52" width="360" height="26" as="geometry" />
        </mxCell>
        <mxCell id="6fUTlpf4RYFusp5NiyDY-23" value="- Cambiar pokemon o atacar          - PokeDex         &#xa; durante la batalla                           - IPorTurnos" style="text;align=left;verticalAlign=top;spacingLeft=4;spacingRight=4;overflow=hidden;rotatable=0;points=[[0,0.5],[1,0.5]];portConstraint=eastwest;rounded=0;shadow=0;html=0;" parent="6fUTlpf4RYFusp5NiyDY-19" vertex="1">
          <mxGeometry y="78" width="360" height="42" as="geometry" />
        </mxCell>
        <mxCell id="6fUTlpf4RYFusp5NiyDY-31" value="Batalla" style="swimlane;fontStyle=2;align=center;verticalAlign=top;childLayout=stackLayout;horizontal=1;startSize=26;horizontalStack=0;resizeParent=1;resizeLast=0;collapsible=1;marginBottom=0;rounded=0;shadow=0;strokeWidth=1;" parent="WIyWlLk6GJQsqaUBKTNV-1" vertex="1">
          <mxGeometry x="-60" y="205" width="290" height="190" as="geometry">
            <mxRectangle x="230" y="140" width="160" height="26" as="alternateBounds" />
          </mxGeometry>
        </mxCell>
        <mxCell id="6fUTlpf4RYFusp5NiyDY-32" value="- Iniciar y terminar la           - Entrenador &#xa;batalla" style="text;align=left;verticalAlign=top;spacingLeft=4;spacingRight=4;overflow=hidden;rotatable=0;points=[[0,0.5],[1,0.5]];portConstraint=eastwest;" parent="6fUTlpf4RYFusp5NiyDY-31" vertex="1">
          <mxGeometry y="26" width="290" height="34" as="geometry" />
        </mxCell>
        <mxCell id="6fUTlpf4RYFusp5NiyDY-33" value="" style="endArrow=none;html=1;rounded=0;entryX=0.5;entryY=1;entryDx=0;entryDy=0;" parent="6fUTlpf4RYFusp5NiyDY-31" target="6fUTlpf4RYFusp5NiyDY-31" edge="1">
          <mxGeometry width="50" height="50" relative="1" as="geometry">
            <mxPoint x="144.5" y="26" as="sourcePoint" />
            <mxPoint x="144.5" y="116" as="targetPoint" />
          </mxGeometry>
        </mxCell>
        <mxCell id="6fUTlpf4RYFusp5NiyDY-34" value="- Procesar los turnos de   &#xa;los entrenadores" style="text;align=left;verticalAlign=top;spacingLeft=4;spacingRight=4;overflow=hidden;rotatable=0;points=[[0,0.5],[1,0.5]];portConstraint=eastwest;rounded=0;shadow=0;html=0;" parent="6fUTlpf4RYFusp5NiyDY-31" vertex="1">
          <mxGeometry y="60" width="290" height="40" as="geometry" />
        </mxCell>
        <mxCell id="6fUTlpf4RYFusp5NiyDY-35" value="- Aplicar la logica de         &#xa;ataque, daño y cambio&#xa;de Pokemon" style="text;align=left;verticalAlign=top;spacingLeft=4;spacingRight=4;overflow=hidden;rotatable=0;points=[[0,0.5],[1,0.5]];portConstraint=eastwest;rounded=0;shadow=0;html=0;" parent="6fUTlpf4RYFusp5NiyDY-31" vertex="1">
          <mxGeometry y="100" width="290" height="50" as="geometry" />
        </mxCell>
        <mxCell id="6fUTlpf4RYFusp5NiyDY-36" value="- Determinar el ganador&#xa;del combate" style="text;align=left;verticalAlign=top;spacingLeft=4;spacingRight=4;overflow=hidden;rotatable=0;points=[[0,0.5],[1,0.5]];portConstraint=eastwest;" parent="6fUTlpf4RYFusp5NiyDY-31" vertex="1">
          <mxGeometry y="150" width="290" height="40" as="geometry" />
        </mxCell>
        <mxCell id="6fUTlpf4RYFusp5NiyDY-13" value="IPorTurnos" style="swimlane;fontStyle=2;align=center;verticalAlign=top;childLayout=stackLayout;horizontal=1;startSize=26;horizontalStack=0;resizeParent=1;resizeLast=0;collapsible=1;marginBottom=0;rounded=0;shadow=0;strokeWidth=1;" parent="WIyWlLk6GJQsqaUBKTNV-1" vertex="1">
          <mxGeometry x="94" y="50" width="320" height="100" as="geometry">
            <mxRectangle x="230" y="140" width="160" height="26" as="alternateBounds" />
          </mxGeometry>
        </mxCell>
        <mxCell id="6fUTlpf4RYFusp5NiyDY-15" value="" style="endArrow=none;html=1;rounded=0;entryX=0.5;entryY=1;entryDx=0;entryDy=0;" parent="6fUTlpf4RYFusp5NiyDY-13" target="6fUTlpf4RYFusp5NiyDY-13" edge="1">
          <mxGeometry width="50" height="50" relative="1" as="geometry">
            <mxPoint x="160" y="26" as="sourcePoint" />
            <mxPoint x="144.5" y="116" as="targetPoint" />
          </mxGeometry>
        </mxCell>
        <mxCell id="6fUTlpf4RYFusp5NiyDY-14" value="- Gestionar el flujo de turnos &#xa;en batalla" style="text;align=left;verticalAlign=top;spacingLeft=4;spacingRight=4;overflow=hidden;rotatable=0;points=[[0,0.5],[1,0.5]];portConstraint=eastwest;" parent="6fUTlpf4RYFusp5NiyDY-13" vertex="1">
          <mxGeometry y="26" width="320" height="44" as="geometry" />
        </mxCell>
        <mxCell id="6fUTlpf4RYFusp5NiyDY-16" value="- Comenzar y finalizar turnos   " style="text;align=left;verticalAlign=top;spacingLeft=4;spacingRight=4;overflow=hidden;rotatable=0;points=[[0,0.5],[1,0.5]];portConstraint=eastwest;rounded=0;shadow=0;html=0;" parent="6fUTlpf4RYFusp5NiyDY-13" vertex="1">
          <mxGeometry y="70" width="320" height="30" as="geometry" />
        </mxCell>
        <mxCell id="46vqmNXSLOu3TlP1rHBQ-2" value="PokeDex" style="swimlane;fontStyle=2;align=center;verticalAlign=top;childLayout=stackLayout;horizontal=1;startSize=26;horizontalStack=0;resizeParent=1;resizeLast=0;collapsible=1;marginBottom=0;rounded=0;shadow=0;strokeWidth=1;" parent="WIyWlLk6GJQsqaUBKTNV-1" vertex="1">
          <mxGeometry x="560" y="50" width="320" height="110" as="geometry">
            <mxRectangle x="230" y="140" width="160" height="26" as="alternateBounds" />
          </mxGeometry>
        </mxCell>
        <mxCell id="46vqmNXSLOu3TlP1rHBQ-3" value="- Almacnar y mostrar lista         - Pokemon &#xa;de pokemones disponibles" style="text;align=left;verticalAlign=top;spacingLeft=4;spacingRight=4;overflow=hidden;rotatable=0;points=[[0,0.5],[1,0.5]];portConstraint=eastwest;" parent="46vqmNXSLOu3TlP1rHBQ-2" vertex="1">
          <mxGeometry y="26" width="320" height="44" as="geometry" />
        </mxCell>
        <mxCell id="46vqmNXSLOu3TlP1rHBQ-4" value="" style="endArrow=none;html=1;rounded=0;entryX=0.5;entryY=1;entryDx=0;entryDy=0;" parent="46vqmNXSLOu3TlP1rHBQ-2" target="46vqmNXSLOu3TlP1rHBQ-2" edge="1">
          <mxGeometry width="50" height="50" relative="1" as="geometry">
            <mxPoint x="160" y="28" as="sourcePoint" />
            <mxPoint x="144.5" y="116" as="targetPoint" />
          </mxGeometry>
        </mxCell>
        <mxCell id="46vqmNXSLOu3TlP1rHBQ-5" value="- Obtener informacion de          - Entrenador&#xa;un pokemon por su nombre" style="text;align=left;verticalAlign=top;spacingLeft=4;spacingRight=4;overflow=hidden;rotatable=0;points=[[0,0.5],[1,0.5]];portConstraint=eastwest;rounded=0;shadow=0;html=0;" parent="46vqmNXSLOu3TlP1rHBQ-2" vertex="1">
          <mxGeometry y="70" width="320" height="40" as="geometry" />
        </mxCell>
      </root>
    </mxGraphModel>
  </diagram>
</mxfile>
